{"title":"Francis.avi","uid":7976069,"size":840711114,"categoryP":"video","categoryS":"movies","magnet":"?xt=urn:btih:908c96b9916db468bae539cb67a8763bd8e32897&amp;dn=Francis.avi&amp;tr=udp%3A%2F%2Ftracker.openbittorrent.com%3A80&amp;tr=udp%3A%2F%2Fopen.demonii.com%3A1337&amp;tr=udp%3A%2F%2Ftracker.coppersurfer.tk%3A6969&amp;tr=udp%3A%2F%2Fexodus.desync.com%3A6969","seeders":0,"leechers":0,"uploader":"topin404","files":-1,"time":1356986582,"description":"Francis (Francis the Talking Mule)\n\nDVDRip, xVid\nEnglish, subtitles in Spanish (forced)\nShow bellow for mediainfo output.\n\n\nORIGINAL TITLE \tFrancis (Francis the Talking Mule)\nYEAR\t\t1950 \t \nRUNNING TIME\t91 min.\nCOUNTRY\t\t[United States]\nDIRECTOR\tArthur Lubin\nSCREENWRITER\tDavid Stern\nCOMPOSER\tFrank Skinner, Walter Scharf\nCINEMATOGRAPHER\tIrving Glassberg (B&amp;W)\nCAST\t\tDonald O'Connor, Patricia Medina, Zasu Pitts, Ray Collins, John McIntire, Eduard Franz, Howland Chamberlain, James Todd, Robert Warwick, Frank Faylen\nSTUDIO/PRODUCER\tUniversal International Pictures\nGENRE\t\tComedy. Fantasy\n\nSYNOPSIS/PLOT\t\nThe truthful soldier Stirling didn't know how to lie about his source of information, the talking army Mule, Francis, so he was treated as a lunatic and led to one after another hilarious situations, where the mule was the only one that appeared in his right mind. In the process of all this, the mule assisted in uncovering a spy, Mareen, who pretended to be lost among the jungles, but was actually... This is a perfect family film, even amusing to the adults. If people all have enough sense as this talking mule does, the world will be a much better place than its present condition.\n\n\nMediaServer&gt; mediainfo Francis.avi\nGeneral\nComplete name                            : Francis.avi\nFormat                                   : AVI\nFormat/Info                              : Audio Video Interleave\nFile size                                : 802 MiB\nDuration                                 : 1h 30mn\nOverall bit rate                         : 1 233 Kbps\nWriting application                      : MEncoder SVN-r22963\nWriting library                          : MPlayer\n\nVideo\nID                                       : 0\nFormat                                   : MPEG-4 Visual\nFormat profile                           : Simple@L3\nFormat settings, BVOP                    : No\nFormat settings, QPel                    : No\nFormat settings, GMC                     : No warppoints\nFormat settings, Matrix                  : Default (H.263)\nCodec ID                                 : XVID\nCodec ID/Hint                            : XviD\nDuration                                 : 1h 30mn\nBit rate                                 : 1 173 Kbps\nWidth                                    : 368 pixels\nHeight                                   : 272 pixels\nDisplay aspect ratio                     : 4:3\nFrame rate                               : 23.976 fps\nColor space                              : YUV\nChroma subsampling                       : 4:2:0\nBit depth                                : 8 bits\nScan type                                : Progressive\nCompression mode                         : Lossy\nBits/(Pixel*Frame)                       : 0.489\nStream size                              : 763 MiB (95%)\nWriting library                          : XviD 1.1.2 (UTC 2006-11-01)\n\nAudio\nID                                       : 1\nFormat                                   : MPEG Audio\nFormat version                           : Version 1\nFormat profile                           : Layer 3\nCodec ID                                 : 55\nCodec ID/Hint                            : MP3\nDuration                                 : 1h 30mn\nBit rate mode                            : Constant\nBit rate                                 : 48.0 Kbps\nChannel(s)                               : 1 channel\nSampling rate                            : 44.1 KHz\nCompression mode                         : Lossy\nStream size                              : 31.2 MiB (4%)\nAlignment                                : Aligned on interleaves\nInterleave, duration                     : 26 ms (0.63 video frame)\nInterleave, preload duration             : 522 ms\n\n","torrent":{"xt":"urn:btih:908c96b9916db468bae539cb67a8763bd8e32897","amp;dn":"Francis.avi","amp;tr":["udp%3A%2F%2Ftracker.openbittorrent.com%3A80","udp%3A%2F%2Fopen.demonii.com%3A1337","udp%3A%2F%2Ftracker.coppersurfer.tk%3A6969","udp%3A%2F%2Fexodus.desync.com%3A6969"],"infoHash":"908c96b9916db468bae539cb67a8763bd8e32897","infoHashBuffer":{"type":"Buffer","data":[144,140,150,185,145,109,180,104,186,229,57,203,103,168,118,59,216,227,40,151]},"announce":[],"urlList":[]}}